<?xml version="1.0" encoding="UTF-8" standalone="no"?>
<svg
   width="279"
   height="330"
   version="1.1"
   id="svg270"
   sodipodi:docname="medtechware_logo_dark.svg"
   inkscape:version="1.2.1 (9c6d41e410, 2022-07-14)"
   xmlns:inkscape="http://www.inkscape.org/namespaces/inkscape"
   xmlns:sodipodi="http://sodipodi.sourceforge.net/DTD/sodipodi-0.dtd"
   xmlns="http://www.w3.org/2000/svg"
   xmlns:svg="http://www.w3.org/2000/svg">
  <defs
     id="defs274" />
  <sodipodi:namedview
     id="namedview272"
     pagecolor="#ffffff"
     bordercolor="#000000"
     borderopacity="0.25"
     inkscape:showpageshadow="2"
     inkscape:pageopacity="0.0"
     inkscape:pagecheckerboard="0"
     inkscape:deskcolor="#d1d1d1"
     showgrid="false"
     inkscape:zoom="2.169697"
     inkscape:cx="120.75419"
     inkscape:cy="165"
     inkscape:window-width="1280"
     inkscape:window-height="961"
     inkscape:window-x="-8"
     inkscape:window-y="-8"
     inkscape:window-maximized="1"
     inkscape:current-layer="svg270" />
  <path
     style="fill:#4d4d4d;stroke:none"
     d="M82 21C82.7608 25.2156 84.6583 28.4457 87 32C115.199 26.1828 142.347 24.0872 171 27.1659C176.381 27.744 181.695 28.7584 187 29.8002C189.332 30.2581 192.366 31.2689 194.582 29.9329C197.355 28.2608 198.213 23.876 199 21C178.933 14.4726 158.949 13 138 13C119.249 13 99.7244 14.3935 82 21M58 18.5301C35.2311 23.6821 43.4123 60.993 66 56.3264C90.5094 51.2628 81.0723 13.3094 58 18.5301M214 18.4822C190.916 22.2718 194.58 60.1579 218 56.6566C241.533 53.1384 238.196 14.5101 214 18.4822M41 27C17.8089 35.7926 3.34518 63.1481 9.4784 87C13.7602 103.652 25.246 119.411 34 134C48.497 158.16 62.5658 182.558 76.5787 207C87.135 225.413 93.8249 248.177 113 259.546C132.163 270.908 158.898 268.926 176 254.674C190.763 242.372 196.77 222.391 205.861 206C219.57 181.283 233.312 156.57 247.281 132C254.834 118.714 264.81 104.901 268.841 90C273.776 71.7585 265.68 50.0082 251 38.5185C247.162 35.5146 239.597 31.6868 240.177 40.0046C240.581 45.7903 246.189 50.4419 249.251 55C254.263 62.4618 257.905 72.9 256.816 82C255.373 94.0447 246.365 105.764 240.424 116C228.456 136.622 216.529 157.284 204.719 178C200.492 185.415 195.992 192.681 191.6 200C189.714 203.144 187.833 207.965 184.621 209.972C179.821 212.972 169.511 211 164 211L119 211C113.174 211 104.554 212.59 99.0934 210.397C95.6096 208.997 93.8208 205.025 92 202C88.2079 195.7 84.5963 189.293 80.7963 183C65.4495 157.585 48.9554 132.811 34.2809 107C26.2022 92.7906 17.1892 77.629 23.7608 61C27.1258 52.4852 35.7376 48.5993 39.5664 40.9105C41.6274 36.7715 41 31.4776 41 27M128 73.4283C107.264 76.3976 86.5957 83.6146 71 98.0903C64.9713 103.686 55.6618 114.064 65.1088 121.347C66.5024 122.422 68.2353 123.288 70 123.497C74.5686 124.037 77.8078 120.037 80.5756 117.035C84.5507 112.724 89.0711 108.89 94 105.699C109.569 95.6214 130.462 89.7008 149 92.5903C164.394 94.9897 179.467 99.9508 192 109.503C196.163 112.676 200.059 116.116 203.576 119.988C205.998 122.656 208.943 126.144 212.996 125.573C218.231 124.836 221.882 117.804 220.246 113C217.563 105.118 207.34 98.0835 201 93.2361C180.994 77.9408 153.123 69.8307 128 73.4283M131 115.428C115.105 117.705 100.936 124.355 89.0008 135.171C82.2057 141.329 81.8776 144.813 87.375 151.995C88.6046 153.602 90.0832 156.071 92.1736 156.654C94.4901 157.301 96.4314 155.327 98 153.941C101.948 150.452 105.645 146.786 110 143.774C120.869 136.256 134.954 133.158 148 135.464C157.771 137.191 167.222 141.551 175 147.669C178.309 150.272 183.317 157.562 187.996 156.94C190.249 156.64 192.118 154.639 193.442 152.956C200.201 144.366 191.709 136.372 184.999 131.004C169.94 118.956 150.319 112.661 131 115.428M133 150.465C122.403 152.372 110.934 159.131 106 169C102.647 175.706 104.358 186.057 113.004 187.562C126.109 189.845 128.44 167.615 143 170.968C152.569 173.171 156.795 189.979 166.996 187.548C177.737 184.988 175.694 171.415 170.481 165.039C161.815 154.439 146.631 148.011 133 150.465M138 276.504C120.4 278.905 111.139 299.993 123.529 313.699C129.21 319.983 137.828 321.979 146 320.79C174.476 316.648 165.86 272.703 138 276.504z"
     id="path268" />
</svg>
